<svg xmlns="http://www.w3.org/2000/svg" version="1.1" xmlns:xlink="http://www.w3.org/1999/xlink" viewBox="0 0 200 200"><rect width="200" height="200" fill="url('#gradient')"></rect><defs><linearGradient id="gradient" gradientTransform="rotate(50 0.5 0.5)"><stop offset="0%" stop-color="#000000"></stop><stop offset="100%" stop-color="#0a3e46"></stop></linearGradient></defs><g><g fill="#739781" transform="matrix(6.193548387096774,0,0,6.193548387096774,3.349209189414978,144.04038506169474)" stroke="#f4f1ed" stroke-width="0.2"><path d="M1.07-14.22L5.58-14.22L8.75-4.33L11.91-14.22L16.43-14.22L16.43 0L12.99 0L12.99-3.32L13.32-10.12L9.88 0L7.62 0L4.17-10.13L4.50-3.32L4.50 0L1.07 0L1.07-14.22ZM26.70-4.81L30.11-4.81Q30.04-3.33 29.31-2.19Q28.57-1.05 27.25-0.43Q25.93 0.20 24.23 0.20L24.23 0.20Q21.43 0.20 19.81-1.63Q18.20-3.46 18.20-6.79L18.20-6.79L18.20-7.49Q18.20-9.58 18.93-11.15Q19.66-12.71 21.03-13.57Q22.39-14.42 24.19-14.42L24.19-14.42Q26.78-14.42 28.35-13.06Q29.92-11.70 30.14-9.31L30.14-9.31L26.72-9.31Q26.68-10.61 26.06-11.17Q25.45-11.74 24.19-11.74L24.19-11.74Q22.91-11.74 22.31-10.78Q21.72-9.82 21.69-7.72L21.69-7.72L21.69-6.72Q21.69-4.44 22.26-3.47Q22.83-2.49 24.23-2.49L24.23-2.49Q25.41-2.49 26.04-3.05Q26.66-3.60 26.70-4.81L26.70-4.81Z"></path></g></g></svg>